<svg xmlns="http://www.w3.org/2000/svg" viewBox="0 0 512 512">
<defs>
<clipPath id="sq"><rect x="36" y="36" width="440" height="440" rx="88"/></clipPath>
</defs>
<rect x="36" y="36" width="440" height="440" rx="88" fill="#57B25E"/>
<g clip-path="url(#sq)">
  <!-- cejas -->
  <path d="M 112,158 C 134,136 186,134 210,150" stroke="#232347" stroke-width="24" stroke-linecap="round" fill="none"/>
  <path d="M 302,150 C 326,134 378,136 400,158" stroke="#232347" stroke-width="24" stroke-linecap="round" fill="none"/>
  <!-- ojos -->
  <ellipse cx="163" cy="252" rx="56" ry="70" fill="#FFFFFF" stroke="#232347" stroke-width="15"/>
  <ellipse cx="349" cy="252" rx="56" ry="70" fill="#FFFFFF" stroke="#232347" stroke-width="15"/>
  <ellipse cx="177" cy="264" rx="25" ry="33" fill="#232347"/>
  <ellipse cx="335" cy="264" rx="25" ry="33" fill="#232347"/>
  <circle cx="168" cy="250" r="8.5" fill="#FFFFFF"/>
  <circle cx="326" cy="250" r="8.5" fill="#FFFFFF"/>
  <!-- boca -->
  <path d="M 176,352 C 206,390 306,390 336,352 C 344,414 300,448 256,448 C 212,448 168,414 176,352 Z" fill="#232347"/>
  <path d="M 186,358 C 216,380 296,380 326,358 L 318,382 C 292,396 220,396 194,382 Z" fill="#FFFFFF"/>
  <path d="M 218,424 C 228,440 284,440 294,424 C 284,408 228,408 218,424 Z" fill="#BC4749"/>
  <!-- grieta -->
  <path d="M 256,28 L 234,140 L 274,250 L 230,360 L 262,484" stroke="#FFFFFF" stroke-width="30" stroke-linecap="round" stroke-linejoin="round" fill="none"/>
</g>
<rect x="36" y="36" width="440" height="440" rx="88" fill="none" stroke="#232347" stroke-width="26"/>
</svg>
